<?xml version="1.0" encoding="utf-8"?>
<!-- Generator: Adobe Illustrator 18.0.0, SVG Export Plug-In . SVG Version: 6.00 Build 0)  -->
<!DOCTYPE svg PUBLIC "-//W3C//DTD SVG 1.1//EN" "http://www.w3.org/Graphics/SVG/1.1/DTD/svg11.dtd">
<svg version="1.1" id="Layer_1" xmlns="http://www.w3.org/2000/svg" xmlns:xlink="http://www.w3.org/1999/xlink" x="0px" y="0px"
	 viewBox="0 0 64 64" enable-background="new 0 0 64 64" xml:space="preserve">
<g id="XMLID_85_">
	<g>
		<g>
			<defs>
				<rect id="SVGID_1_" x="766.4" y="147" width="36.5" height="36.5"/>
			</defs>
			<clipPath id="SVGID_2_">
				<use xlink:href="#SVGID_1_"  overflow="visible"/>
			</clipPath>
			<rect x="763.8" y="144.4" clip-path="url(#SVGID_2_)" fill="#84C142" width="41.7" height="41.7"/>
		</g>
		<g>
			<defs>
				<rect id="SVGID_3_" x="766.4" y="188" width="36.5" height="36.5"/>
			</defs>
			<clipPath id="SVGID_4_">
				<use xlink:href="#SVGID_3_"  overflow="visible"/>
			</clipPath>
			<rect x="763.8" y="185.3" clip-path="url(#SVGID_4_)" fill="#00AACC" width="41.7" height="41.7"/>
		</g>
		<g>
			<defs>
				<rect id="SVGID_5_" x="807.4" y="147" width="36.5" height="36.5"/>
			</defs>
			<clipPath id="SVGID_6_">
				<use xlink:href="#SVGID_5_"  overflow="visible"/>
			</clipPath>
			<rect x="804.8" y="144.4" clip-path="url(#SVGID_6_)" fill="#00AACC" width="41.7" height="41.7"/>
		</g>
		<g>
			<defs>
				<rect id="SVGID_7_" x="807.4" y="188" width="36.5" height="36.5"/>
			</defs>
			<clipPath id="SVGID_8_">
				<use xlink:href="#SVGID_7_"  overflow="visible"/>
			</clipPath>
			<rect x="804.8" y="185.3" clip-path="url(#SVGID_8_)" fill="#06446A" width="41.7" height="41.7"/>
		</g>
		<g>
			<defs>
				<rect id="SVGID_9_" x="772.1" y="152" width="2.2" height="26.6"/>
			</defs>
			<clipPath id="SVGID_10_">
				<use xlink:href="#SVGID_9_"  overflow="visible"/>
			</clipPath>
			<rect x="769.5" y="149.3" clip-path="url(#SVGID_10_)" fill="#FFFFFF" width="7.4" height="31.8"/>
		</g>
		<g>
			<defs>
				<rect id="SVGID_11_" x="795.4" y="152" width="2.2" height="26.6"/>
			</defs>
			<clipPath id="SVGID_12_">
				<use xlink:href="#SVGID_11_"  overflow="visible"/>
			</clipPath>
			<rect x="792.8" y="149.3" clip-path="url(#SVGID_12_)" fill="#FFFFFF" width="7.4" height="31.8"/>
		</g>
		<g>
			<defs>
				<rect id="SVGID_13_" x="787.6" y="152" width="2.2" height="26.6"/>
			</defs>
			<clipPath id="SVGID_14_">
				<use xlink:href="#SVGID_13_"  overflow="visible"/>
			</clipPath>
			<rect x="785" y="149.3" clip-path="url(#SVGID_14_)" fill="#FFFFFF" width="7.4" height="31.8"/>
		</g>
		<g>
			<defs>
				<rect id="SVGID_15_" x="779.9" y="152" width="2.2" height="26.6"/>
			</defs>
			<clipPath id="SVGID_16_">
				<use xlink:href="#SVGID_15_"  overflow="visible"/>
			</clipPath>
			<rect x="777.2" y="149.3" clip-path="url(#SVGID_16_)" fill="#FFFFFF" width="7.4" height="31.8"/>
		</g>
		<g>
			<defs>
				<rect id="SVGID_17_" x="812.9" y="152" width="2.2" height="26.6"/>
			</defs>
			<clipPath id="SVGID_18_">
				<use xlink:href="#SVGID_17_"  overflow="visible"/>
			</clipPath>
			<rect x="810.3" y="149.3" clip-path="url(#SVGID_18_)" fill="#FFFFFF" width="7.4" height="31.8"/>
		</g>
		<g>
			<defs>
				<rect id="SVGID_19_" x="836.2" y="152" width="2.2" height="26.6"/>
			</defs>
			<clipPath id="SVGID_20_">
				<use xlink:href="#SVGID_19_"  overflow="visible"/>
			</clipPath>
			<rect x="833.6" y="149.3" clip-path="url(#SVGID_20_)" fill="#FFFFFF" width="7.4" height="31.8"/>
		</g>
		<g>
			<defs>
				<rect id="SVGID_21_" x="828.4" y="152" width="2.2" height="26.6"/>
			</defs>
			<clipPath id="SVGID_22_">
				<use xlink:href="#SVGID_21_"  overflow="visible"/>
			</clipPath>
			<rect x="825.8" y="149.3" clip-path="url(#SVGID_22_)" fill="#FFFFFF" width="7.4" height="31.8"/>
		</g>
		<g>
			<defs>
				<rect id="SVGID_23_" x="820.7" y="152" width="2.2" height="26.6"/>
			</defs>
			<clipPath id="SVGID_24_">
				<use xlink:href="#SVGID_23_"  overflow="visible"/>
			</clipPath>
			<rect x="818.1" y="149.3" clip-path="url(#SVGID_24_)" fill="#FFFFFF" width="7.4" height="31.8"/>
		</g>
		<g>
			<defs>
				<rect id="SVGID_25_" x="772.1" y="193" width="2.2" height="26.6"/>
			</defs>
			<clipPath id="SVGID_26_">
				<use xlink:href="#SVGID_25_"  overflow="visible"/>
			</clipPath>
			<rect x="769.5" y="190.4" clip-path="url(#SVGID_26_)" fill="#FFFFFF" width="7.4" height="31.8"/>
		</g>
		<g>
			<defs>
				<rect id="SVGID_27_" x="795.4" y="193" width="2.2" height="26.6"/>
			</defs>
			<clipPath id="SVGID_28_">
				<use xlink:href="#SVGID_27_"  overflow="visible"/>
			</clipPath>
			<rect x="792.8" y="190.4" clip-path="url(#SVGID_28_)" fill="#FFFFFF" width="7.4" height="31.8"/>
		</g>
		<g>
			<defs>
				<rect id="SVGID_29_" x="787.6" y="193" width="2.2" height="26.6"/>
			</defs>
			<clipPath id="SVGID_30_">
				<use xlink:href="#SVGID_29_"  overflow="visible"/>
			</clipPath>
			<rect x="785" y="190.4" clip-path="url(#SVGID_30_)" fill="#FFFFFF" width="7.4" height="31.8"/>
		</g>
		<g>
			<defs>
				<rect id="SVGID_31_" x="779.9" y="193" width="2.2" height="26.6"/>
			</defs>
			<clipPath id="SVGID_32_">
				<use xlink:href="#SVGID_31_"  overflow="visible"/>
			</clipPath>
			<rect x="777.2" y="190.4" clip-path="url(#SVGID_32_)" fill="#FFFFFF" width="7.4" height="31.8"/>
		</g>
		<g>
			<defs>
				<rect id="SVGID_33_" x="812.9" y="193" width="2.2" height="26.6"/>
			</defs>
			<clipPath id="SVGID_34_">
				<use xlink:href="#SVGID_33_"  overflow="visible"/>
			</clipPath>
			<rect x="810.3" y="190.4" clip-path="url(#SVGID_34_)" fill="#FFFFFF" width="7.4" height="31.8"/>
		</g>
		<g>
			<defs>
				<rect id="SVGID_35_" x="836.2" y="193" width="2.2" height="26.6"/>
			</defs>
			<clipPath id="SVGID_36_">
				<use xlink:href="#SVGID_35_"  overflow="visible"/>
			</clipPath>
			<rect x="833.6" y="190.4" clip-path="url(#SVGID_36_)" fill="#FFFFFF" width="7.4" height="31.8"/>
		</g>
		<g>
			<defs>
				<rect id="SVGID_37_" x="828.4" y="193" width="2.2" height="26.6"/>
			</defs>
			<clipPath id="SVGID_38_">
				<use xlink:href="#SVGID_37_"  overflow="visible"/>
			</clipPath>
			<rect x="825.8" y="190.4" clip-path="url(#SVGID_38_)" fill="#FFFFFF" width="7.4" height="31.8"/>
		</g>
		<g>
			<defs>
				<rect id="SVGID_39_" x="820.7" y="193" width="2.2" height="26.6"/>
			</defs>
			<clipPath id="SVGID_40_">
				<use xlink:href="#SVGID_39_"  overflow="visible"/>
			</clipPath>
			<rect x="818.1" y="190.4" clip-path="url(#SVGID_40_)" fill="#FFFFFF" width="7.4" height="31.8"/>
		</g>
		<g>
			<defs>
				<polygon id="SVGID_41_" points="855,234 755.6,234 755.6,213.9 760.9,213.9 760.9,228.9 849.8,228.9 849.8,213.9 855,213.9 				
					"/>
			</defs>
			<clipPath id="SVGID_42_">
				<use xlink:href="#SVGID_41_"  overflow="visible"/>
			</clipPath>
			<rect x="753" y="211.3" clip-path="url(#SVGID_42_)" fill="#84C142" width="104.6" height="25.4"/>
		</g>
		<g>
			<defs>
				<rect id="SVGID_43_" x="750.6" y="170.9" width="66.2" height="27.2"/>
			</defs>
			<use xlink:href="#SVGID_43_"  overflow="visible" fill-rule="evenodd" clip-rule="evenodd" fill="#00B098"/>
			<clipPath id="SVGID_44_">
				<use xlink:href="#SVGID_43_"  overflow="visible"/>
			</clipPath>
			<rect x="748" y="168.3" clip-path="url(#SVGID_44_)" fill="#00B098" width="71.4" height="32.5"/>
		</g>
		<g>
			<defs>
				<polygon id="SVGID_45_" points="766.4,205 755.9,205 750.6,198.2 766.4,198.2 				"/>
			</defs>
			<use xlink:href="#SVGID_45_"  overflow="visible" fill-rule="evenodd" clip-rule="evenodd" fill="#00937B"/>
			<clipPath id="SVGID_46_">
				<use xlink:href="#SVGID_45_"  overflow="visible"/>
			</clipPath>
			<rect x="748" y="195.6" clip-path="url(#SVGID_46_)" fill="#00937B" width="21" height="12.1"/>
		</g>
	</g>
	<g>
		<path fill="#FFFFFF" d="M768.7,178.5h2.5l2.8,7.9l1.7-7.9h2.2l-2.4,11.3h-2.4l-2.9-8l-1.7,8h-2.2L768.7,178.5z"/>
		<path fill="#FFFFFF" d="M787.3,180.5h-6l-0.5,2.4h5.5l-0.4,2h-5.5l-0.6,2.9h6.2l-0.4,2h-8.5l2.4-11.3h8.3L787.3,180.5z"/>
		<path fill="#FFFFFF" d="M790.8,178.5l0.1,6.5l-0.1,1.8l0.7-1.8l2.7-6.5h2.5l0,6.5l0,1.8l0.7-1.7l2.9-6.5h2.4l-5.6,11.3h-2.2l0-6.6
			l0.1-2.2l-0.9,2.2l-2.8,6.6h-2.2l-0.8-11.3H790.8z"/>
	</g>
</g>
<g id="XMLID_1_">
	<g>
		<g>
			<defs>
				<rect id="SVGID_47_" x="14.8" y="11.4" width="17.3" height="17.3"/>
			</defs>
			<clipPath id="SVGID_48_">
				<use xlink:href="#SVGID_47_"  overflow="visible"/>
			</clipPath>
			<rect x="13.5" y="10.2" clip-path="url(#SVGID_48_)" fill="#84C142" width="19.8" height="19.8"/>
		</g>
		<g>
			<defs>
				<rect id="SVGID_49_" x="14.8" y="30.8" width="17.3" height="17.3"/>
			</defs>
			<clipPath id="SVGID_50_">
				<use xlink:href="#SVGID_49_"  overflow="visible"/>
			</clipPath>
			<rect x="13.5" y="29.6" clip-path="url(#SVGID_50_)" fill="#00AACC" width="19.8" height="19.8"/>
		</g>
		<g>
			<defs>
				<rect id="SVGID_51_" x="34.2" y="11.4" width="17.3" height="17.3"/>
			</defs>
			<clipPath id="SVGID_52_">
				<use xlink:href="#SVGID_51_"  overflow="visible"/>
			</clipPath>
			<rect x="32.9" y="10.2" clip-path="url(#SVGID_52_)" fill="#00AACC" width="19.8" height="19.8"/>
		</g>
		<g>
			<defs>
				<rect id="SVGID_53_" x="34.2" y="30.8" width="17.3" height="17.3"/>
			</defs>
			<clipPath id="SVGID_54_">
				<use xlink:href="#SVGID_53_"  overflow="visible"/>
			</clipPath>
			<rect x="32.9" y="29.6" clip-path="url(#SVGID_54_)" fill="#06446A" width="19.8" height="19.8"/>
		</g>
		<g>
			<defs>
				<rect id="SVGID_55_" x="17.5" y="13.8" width="1" height="12.6"/>
			</defs>
			<clipPath id="SVGID_56_">
				<use xlink:href="#SVGID_55_"  overflow="visible"/>
			</clipPath>
			<rect x="16.2" y="12.5" clip-path="url(#SVGID_56_)" fill="#FFFFFF" width="3.5" height="15"/>
		</g>
		<g>
			<defs>
				<rect id="SVGID_57_" x="28.5" y="13.8" width="1" height="12.6"/>
			</defs>
			<clipPath id="SVGID_58_">
				<use xlink:href="#SVGID_57_"  overflow="visible"/>
			</clipPath>
			<rect x="27.3" y="12.5" clip-path="url(#SVGID_58_)" fill="#FFFFFF" width="3.5" height="15"/>
		</g>
		<g>
			<defs>
				<rect id="SVGID_59_" x="24.8" y="13.8" width="1" height="12.6"/>
			</defs>
			<clipPath id="SVGID_60_">
				<use xlink:href="#SVGID_59_"  overflow="visible"/>
			</clipPath>
			<rect x="23.6" y="12.5" clip-path="url(#SVGID_60_)" fill="#FFFFFF" width="3.5" height="15"/>
		</g>
		<g>
			<defs>
				<rect id="SVGID_61_" x="21.1" y="13.8" width="1" height="12.6"/>
			</defs>
			<clipPath id="SVGID_62_">
				<use xlink:href="#SVGID_61_"  overflow="visible"/>
			</clipPath>
			<rect x="19.9" y="12.5" clip-path="url(#SVGID_62_)" fill="#FFFFFF" width="3.5" height="15"/>
		</g>
		<g>
			<defs>
				<rect id="SVGID_63_" x="36.8" y="13.8" width="1" height="12.6"/>
			</defs>
			<clipPath id="SVGID_64_">
				<use xlink:href="#SVGID_63_"  overflow="visible"/>
			</clipPath>
			<rect x="35.6" y="12.5" clip-path="url(#SVGID_64_)" fill="#FFFFFF" width="3.5" height="15"/>
		</g>
		<g>
			<defs>
				<rect id="SVGID_65_" x="47.8" y="13.8" width="1" height="12.6"/>
			</defs>
			<clipPath id="SVGID_66_">
				<use xlink:href="#SVGID_65_"  overflow="visible"/>
			</clipPath>
			<rect x="46.6" y="12.5" clip-path="url(#SVGID_66_)" fill="#FFFFFF" width="3.5" height="15"/>
		</g>
		<g>
			<defs>
				<rect id="SVGID_67_" x="44.1" y="13.8" width="1" height="12.6"/>
			</defs>
			<clipPath id="SVGID_68_">
				<use xlink:href="#SVGID_67_"  overflow="visible"/>
			</clipPath>
			<rect x="42.9" y="12.5" clip-path="url(#SVGID_68_)" fill="#FFFFFF" width="3.5" height="15"/>
		</g>
		<g>
			<defs>
				<rect id="SVGID_69_" x="40.5" y="13.8" width="1" height="12.6"/>
			</defs>
			<clipPath id="SVGID_70_">
				<use xlink:href="#SVGID_69_"  overflow="visible"/>
			</clipPath>
			<rect x="39.2" y="12.5" clip-path="url(#SVGID_70_)" fill="#FFFFFF" width="3.5" height="15"/>
		</g>
		<g>
			<defs>
				<rect id="SVGID_71_" x="17.5" y="33.2" width="1" height="12.6"/>
			</defs>
			<clipPath id="SVGID_72_">
				<use xlink:href="#SVGID_71_"  overflow="visible"/>
			</clipPath>
			<rect x="16.2" y="31.9" clip-path="url(#SVGID_72_)" fill="#FFFFFF" width="3.5" height="15"/>
		</g>
		<g>
			<defs>
				<rect id="SVGID_73_" x="28.5" y="33.2" width="1" height="12.6"/>
			</defs>
			<clipPath id="SVGID_74_">
				<use xlink:href="#SVGID_73_"  overflow="visible"/>
			</clipPath>
			<rect x="27.3" y="31.9" clip-path="url(#SVGID_74_)" fill="#FFFFFF" width="3.5" height="15"/>
		</g>
		<g>
			<defs>
				<rect id="SVGID_75_" x="24.8" y="33.2" width="1" height="12.6"/>
			</defs>
			<clipPath id="SVGID_76_">
				<use xlink:href="#SVGID_75_"  overflow="visible"/>
			</clipPath>
			<rect x="23.6" y="31.9" clip-path="url(#SVGID_76_)" fill="#FFFFFF" width="3.5" height="15"/>
		</g>
		<g>
			<defs>
				<rect id="SVGID_77_" x="21.1" y="33.2" width="1" height="12.6"/>
			</defs>
			<clipPath id="SVGID_78_">
				<use xlink:href="#SVGID_77_"  overflow="visible"/>
			</clipPath>
			<rect x="19.9" y="31.9" clip-path="url(#SVGID_78_)" fill="#FFFFFF" width="3.5" height="15"/>
		</g>
		<g>
			<defs>
				<rect id="SVGID_79_" x="36.8" y="33.2" width="1" height="12.6"/>
			</defs>
			<clipPath id="SVGID_80_">
				<use xlink:href="#SVGID_79_"  overflow="visible"/>
			</clipPath>
			<rect x="35.6" y="31.9" clip-path="url(#SVGID_80_)" fill="#FFFFFF" width="3.5" height="15"/>
		</g>
		<g>
			<defs>
				<rect id="SVGID_81_" x="47.8" y="33.2" width="1" height="12.6"/>
			</defs>
			<clipPath id="SVGID_82_">
				<use xlink:href="#SVGID_81_"  overflow="visible"/>
			</clipPath>
			<rect x="46.6" y="31.9" clip-path="url(#SVGID_82_)" fill="#FFFFFF" width="3.5" height="15"/>
		</g>
		<g>
			<defs>
				<rect id="SVGID_83_" x="44.1" y="33.2" width="1" height="12.6"/>
			</defs>
			<clipPath id="SVGID_84_">
				<use xlink:href="#SVGID_83_"  overflow="visible"/>
			</clipPath>
			<rect x="42.9" y="31.9" clip-path="url(#SVGID_84_)" fill="#FFFFFF" width="3.5" height="15"/>
		</g>
		<g>
			<defs>
				<rect id="SVGID_85_" x="40.5" y="33.2" width="1" height="12.6"/>
			</defs>
			<clipPath id="SVGID_86_">
				<use xlink:href="#SVGID_85_"  overflow="visible"/>
			</clipPath>
			<rect x="39.2" y="31.9" clip-path="url(#SVGID_86_)" fill="#FFFFFF" width="3.5" height="15"/>
		</g>
		<g>
			<defs>
				<polygon id="SVGID_87_" points="56.7,52.6 9.7,52.6 9.7,43.1 12.1,43.1 12.1,50.1 54.2,50.1 54.2,43.1 56.7,43.1 				"/>
			</defs>
			<clipPath id="SVGID_88_">
				<use xlink:href="#SVGID_87_"  overflow="visible"/>
			</clipPath>
			<rect x="8.4" y="41.8" clip-path="url(#SVGID_88_)" fill="#84C142" width="49.5" height="12"/>
		</g>
		<g>
			<defs>
				<rect id="SVGID_89_" x="7.3" y="22.7" width="31.3" height="12.9"/>
			</defs>
			<use xlink:href="#SVGID_89_"  overflow="visible" fill-rule="evenodd" clip-rule="evenodd" fill="#00B098"/>
			<clipPath id="SVGID_90_">
				<use xlink:href="#SVGID_89_"  overflow="visible"/>
			</clipPath>
			<rect x="6.1" y="21.5" clip-path="url(#SVGID_90_)" fill="#00B098" width="33.8" height="15.4"/>
		</g>
		<g>
			<defs>
				<polygon id="SVGID_91_" points="14.8,38.9 9.8,38.9 7.3,35.6 14.8,35.6 				"/>
			</defs>
			<use xlink:href="#SVGID_91_"  overflow="visible" fill-rule="evenodd" clip-rule="evenodd" fill="#00937B"/>
			<clipPath id="SVGID_92_">
				<use xlink:href="#SVGID_91_"  overflow="visible"/>
			</clipPath>
			<rect x="6.1" y="34.4" clip-path="url(#SVGID_92_)" fill="#00937B" width="9.9" height="5.7"/>
		</g>
	</g>
	<g>
		<path fill="#FFFFFF" d="M15.9,26.3H17l1.3,3.7l0.8-3.7h1l-1.1,5.3h-1.1l-1.4-3.8l-0.8,3.8h-1L15.9,26.3z"/>
		<path fill="#FFFFFF" d="M24.7,27.3h-2.8l-0.2,1.1h2.6L24,29.3h-2.6l-0.3,1.4h3l-0.2,1h-4l1.1-5.3h3.9L24.7,27.3z"/>
		<path fill="#FFFFFF" d="M26.3,26.3l0.1,3.1l0,0.8l0.3-0.8l1.3-3.1h1.2l0,3.1l0,0.8l0.3-0.8l1.4-3.1h1.1l-2.6,5.3h-1.1l0-3.1l0-1
			l-0.4,1l-1.3,3.1h-1l-0.4-5.3H26.3z"/>
	</g>
</g>
</svg>
